<?xml version="1.0" encoding="utf-8"?>
<!-- Generator: Adobe Illustrator 24.0.0, SVG Export Plug-In . SVG Version: 6.00 Build 0)  -->
<svg version="1.1"
	 id="svg2" xmlns:cc="http://creativecommons.org/ns#" xmlns:dc="http://purl.org/dc/elements/1.1/" xmlns:rdf="http://www.w3.org/1999/02/22-rdf-syntax-ns#"
	 xmlns="http://www.w3.org/2000/svg" xmlns:xlink="http://www.w3.org/1999/xlink" x="0px" y="0px" viewBox="0 0 1543.4 320"
	 style="enable-background:new 0 0 1543.4 320;" xml:space="preserve">
<style type="text/css">
	.st0{fill-rule:evenodd;clip-rule:evenodd;fill:#FFFFFF;}
</style>
<g>
	<path class="st0" d="M493.7,295.9c6.7,0,12.1,5.4,12.1,12.1c0,6.7-5.4,12.1-12.1,12.1s-12.1-5.4-12.1-12.1
		C481.6,301.2,487,295.9,493.7,295.9"/>
	<path class="st0" d="M587.2,295.9c6.7,0,12.1,5.4,12.1,12.1c0,6.7-5.4,12.1-12.1,12.1s-12.1-5.4-12.1-12.1
		C575.2,301.2,580.5,295.9,587.2,295.9"/>
	<path class="st0" d="M679.7,295.9c6.7,0,12.1,5.4,12.1,12.1c0,6.7-5.4,12.1-12.1,12.1s-12.1-5.4-12.1-12.1
		C667.6,301.2,673,295.9,679.7,295.9"/>
	<path class="st0" d="M771.9,295.9c6.7,0,12.1,5.4,12.1,12.1c0,6.7-5.4,12.1-12.1,12.1s-12.1-5.4-12.1-12.1
		C759.8,301.2,765.2,295.9,771.9,295.9"/>
	<path class="st0" d="M865.4,295.9c6.7,0,12.1,5.4,12.1,12.1c0,6.7-5.4,12.1-12.1,12.1c-6.7,0-12.1-5.4-12.1-12.1
		C853.3,301.2,858.7,295.9,865.4,295.9"/>
	<path class="st0" d="M958.8,295.9c6.7,0,12.1,5.4,12.1,12.1c0,6.7-5.4,12.1-12.1,12.1c-6.7,0-12.1-5.4-12.1-12.1
		C946.8,301.2,952.1,295.9,958.8,295.9"/>
	<path class="st0" d="M1049,295.9c6.7,0,12.1,5.4,12.1,12.1c0,6.7-5.4,12.1-12.1,12.1c-6.7,0-12.1-5.4-12.1-12.1
		C1036.9,301.2,1042.3,295.9,1049,295.9"/>
	<g>
		<path class="st0" d="M1411.1,184.1h-45.7V4.4h45.7v68h51.8v-68h45.7v179.7h-45.7v-67.8h-51.8L1411.1,184.1L1411.1,184.1z
			 M1276,146.3c-14,26.9-35.5,40.4-64.7,40.4c-19,0-35.3-5-48.8-15.5c-14.7-11.5-22.1-26.7-22.1-46V63.3c0-19.3,7.4-34.5,22.4-46
			c13.4-10.4,29.7-15.5,49.2-15.5c29.7,0,50.8,13.7,63.2,41.4l-37.1,15c-6.1-10.9-16.2-15.8-30.7-14.2c-14.5,1.5-21.5,7.8-21.5,19.3
			v61.9c0,5.3,2.3,9.6,6.6,13c3.8,3.3,8.9,5.3,15,5.9c14.5,1.3,24.1-4.1,28.9-16L1276,146.3z M969.7,75h72.8v39.3h-72.8v26.9h79.2
			v42.9H923.8V4.4h125.1V47h-79.2L969.7,75L969.7,75z M785.3,47.3v136.8h-46V47.3h-47.7V4.1H833v43.2H785.3z M600.9,184.1h-45.4V4.4
			h45.4V184.1z M287.2,4.4h45.4l37.8,87.8l38-87.8H454v179.7h-45.7l0.3-51.8l2.8-36.3l-1.5-0.3l-23.6,61.7h-31.2l-24.1-61.7
			l-1.3,0.3l3.1,36.3v51.8h-45.4L287.2,4.4L287.2,4.4z M131,107.7l-12.4-52.5h-1.3L104,107.7L131,107.7L131,107.7z M202.3,184.1
			h-48.8L141.9,148H93.9l-11.2,36.1H34L96.7,4.4h41.4L202.3,184.1z"/>
	</g>
</g>
</svg>
